<?xml version="1.0" encoding="UTF-8"?> <svg xmlns="http://www.w3.org/2000/svg" xmlns:xlink="http://www.w3.org/1999/xlink" width="179px" height="180px" viewBox="0 0 179 180" version="1.1"><title>Group 31</title><defs><polygon id="path-1" points="0.0004 0.242 65.7914 0.242 65.7914 66.0325 0.0004 66.0325"></polygon><polygon id="path-3" points="0.9686 0.242 66.1948944 0.242 66.1948944 66.0316 0.9686 66.0316"></polygon></defs><g id="Page-1" stroke="none" stroke-width="1" fill="none" fill-rule="evenodd"><g id="Group-31"><path d="M106.3563,112.0798 L103.0833,108.8068 C101.6613,107.3848 99.4883,107.0078 97.6753,107.8678 C97.0933,108.1438 96.4893,108.3938 95.8793,108.6118 C93.9903,109.2838 92.7213,111.0878 92.7213,113.0998 L92.7213,117.7278 L86.0383,117.7278 L86.0383,113.0998 C86.0383,111.0878 84.7693,109.2848 82.8813,108.6128 C82.2713,108.3938 81.6663,108.1438 81.0843,107.8678 C79.2713,107.0068 77.0983,107.3848 75.6763,108.8068 L72.4033,112.0798 L67.6793,107.3548 L70.9523,104.0808 C72.3743,102.6598 72.7513,100.4858 71.8913,98.6738 C71.6143,98.0918 71.3643,97.4878 71.1463,96.8768 C70.4743,94.9888 68.6703,93.7198 66.6593,93.7198 L62.0303,93.7198 L62.0303,87.0378 L66.6593,87.0378 C68.6703,87.0378 70.4743,85.7678 71.1463,83.8808 C71.3643,83.2688 71.6143,82.6648 71.8913,82.0818 C72.7513,80.2698 72.3743,78.0978 70.9513,76.6758 L67.6793,73.4028 L72.4033,68.6778 L75.6763,71.9508 C77.0983,73.3718 79.2723,73.7508 81.0853,72.8898 C81.6653,72.6138 82.2703,72.3628 82.8813,72.1448 C84.7703,71.4728 86.0393,69.6698 86.0393,67.6578 L86.0393,63.0298 L92.7213,63.0298 L92.7213,67.6578 C92.7213,69.6698 93.9903,71.4728 95.8783,72.1448 C96.4893,72.3628 97.0933,72.6128 97.6763,72.8898 C99.4883,73.7508 101.6613,73.3718 103.0833,71.9508 L106.3563,68.6778 L111.0813,73.4028 L107.8083,76.6758 C106.3863,78.0978 106.0083,80.2708 106.8693,82.0818 C107.1463,82.6648 107.3963,83.2698 107.6133,83.8798 C108.2863,85.7678 110.0893,87.0378 112.1013,87.0378 L116.7303,87.0378 L116.7303,93.7198 L112.1013,93.7198 C110.0893,93.7198 108.2863,94.9888 107.6143,96.8768 C107.3963,97.4878 107.1463,98.0918 106.8693,98.6748 C106.0093,100.4858 106.3863,102.6598 107.8083,104.0818 L111.0813,107.3548 L106.3563,112.0798 Z M115.1133,103.9818 L111.7433,100.6118 C111.9903,100.0708 112.2203,99.5168 112.4283,98.9568 L117.1953,98.9568 C119.8253,98.9568 121.9653,96.8178 121.9653,94.1868 L121.9653,86.5708 C121.9653,83.9408 119.8253,81.8008 117.1953,81.8008 L112.4283,81.8008 C112.2203,81.2418 111.9903,80.6878 111.7433,80.1458 L115.1143,76.7758 C116.9733,74.9158 116.9733,71.8898 115.1133,70.0298 L109.7283,64.6448 C107.8683,62.7848 104.8423,62.7858 102.9813,64.6448 L99.6123,68.0158 C99.0713,67.7678 98.5173,67.5378 97.9573,67.3298 L97.9573,62.5628 C97.9573,59.9328 95.8173,57.7928 93.1873,57.7928 L85.5713,57.7928 C82.9413,57.7928 80.8013,59.9328 80.8013,62.5628 L80.8013,67.3298 C80.2403,67.5388 79.6863,67.7678 79.1473,68.0158 L75.7763,64.6448 C73.9123,62.7808 70.8943,62.7798 69.0303,64.6448 L63.6453,70.0298 C61.7853,71.8898 61.7853,74.9158 63.6453,76.7768 L67.0153,80.1458 C66.7683,80.6868 66.5383,81.2418 66.3303,81.8008 L61.5643,81.8008 C58.9333,81.8008 56.7933,83.9408 56.7933,86.5708 L56.7933,94.1868 C56.7933,96.8178 58.9333,98.9568 61.5643,98.9568 L66.3303,98.9568 C66.5383,99.5168 66.7683,100.0718 67.0153,100.6118 L63.6443,103.9828 C61.7853,105.8428 61.7853,108.8688 63.6453,110.7278 L69.0303,116.1138 C70.8953,117.9778 73.9113,117.9778 75.7763,116.1138 L79.1473,112.7428 C79.6873,112.9908 80.2413,113.2198 80.8013,113.4288 L80.8013,118.1948 C80.8013,120.8258 82.9413,122.9648 85.5713,122.9648 L93.1873,122.9648 C95.8173,122.9648 97.9573,120.8258 97.9573,118.1948 L97.9573,113.4288 C98.5173,113.2198 99.0713,112.9908 99.6123,112.7428 L102.9823,116.1138 C104.8423,117.9718 107.8683,117.9738 109.7283,116.1138 L115.1133,110.7278 C116.9733,108.8688 116.9733,105.8428 115.1133,103.9818 L115.1133,103.9818 Z" id="Fill-1" fill="#FFFFFF"></path><path d="M89.3798,99.1174 C84.5608,99.1174 80.6408,95.1974 80.6408,90.3784 C80.6408,85.5604 84.5608,81.6394 89.3798,81.6394 C94.1988,81.6394 98.1188,85.5604 98.1188,90.3784 C98.1188,95.1974 94.1978,99.1174 89.3798,99.1174 M89.3798,76.4034 C81.6738,76.4034 75.4038,82.6724 75.4038,90.3784 C75.4038,98.0854 81.6738,104.3544 89.3798,104.3544 C97.0868,104.3544 103.3558,98.0854 103.3558,90.3784 C103.3558,82.6724 97.0868,76.4034 89.3798,76.4034" id="Fill-3" fill="#FFFFFF"></path><g id="Group-7" transform="translate(0.000000, 0.758000)"><mask id="mask-2" fill="white"><use xlink:href="#path-1"></use></mask><g id="Clip-6"></g><path d="M32.8954,5.4785 C48.1464,5.4785 60.5544,17.8855 60.5544,33.1365 C60.5544,39.4075 58.4534,45.1935 54.9234,49.8385 C53.0294,44.1805 47.6824,40.0905 41.3954,40.0905 L24.3954,40.0905 C18.1094,40.0905 12.7624,44.1805 10.8684,49.8385 C7.3384,45.1935 5.2374,39.4075 5.2374,33.1365 C5.2374,17.8855 17.6454,5.4785 32.8954,5.4785 M15.3684,54.5155 C15.3684,49.0935 19.6424,45.3275 24.3954,45.3275 L41.3954,45.3275 C46.1534,45.3275 50.4234,49.0975 50.4234,54.5145 C45.4664,58.5855 39.2954,60.7945 32.8954,60.7945 C26.6334,60.7945 20.4274,58.6705 15.3684,54.5155 M32.8954,66.0325 C51.0824,66.0325 65.7914,51.2525 65.7914,33.1365 C65.7914,14.9985 51.0344,0.2415 32.8954,0.2415 C14.7574,0.2415 0.0004,14.9985 0.0004,33.1365 C0.0004,51.2605 14.7464,66.0325 32.8954,66.0325" id="Fill-5" fill="#FFFFFF" mask="url(#mask-2)"></path></g><path d="M167.8915,163.5646 C165.9965,157.9066 160.6505,153.8166 154.3635,153.8166 L137.3645,153.8166 C131.0775,153.8166 125.7315,157.9066 123.8365,163.5646 C120.3065,158.9206 118.2055,153.1336 118.2055,146.8626 C118.2055,131.6116 130.6135,119.2046 145.8645,119.2046 C161.1155,119.2046 173.5225,131.6116 173.5225,146.8626 C173.5215,153.1336 171.4215,158.9206 167.8915,163.5646 M128.3365,168.2406 C128.3365,162.8196 132.6105,159.0546 137.3645,159.0546 L154.3635,159.0546 C159.1225,159.0536 163.3915,162.8226 163.3915,168.2406 C153.2345,176.5836 138.5725,176.6496 128.3365,168.2406 M145.8645,113.9676 C127.7255,113.9676 112.9685,128.7246 112.9685,146.8626 C112.9685,164.9936 127.6995,179.7576 145.8645,179.7576 C163.9375,179.7576 178.7595,165.0666 178.7595,146.8626 C178.7595,128.7246 164.0025,113.9676 145.8645,113.9676" id="Fill-8" fill="#FFFFFF"></path><path d="M27.5463,18.362 C30.4963,15.413 35.2953,15.413 38.2443,18.362 C41.2013,21.319 41.2013,26.104 38.2443,29.06 C35.2953,32.009 30.4963,32.009 27.5463,29.06 C24.5893,26.104 24.5893,21.319 27.5463,18.362 M41.9473,32.764 C46.9513,27.76 46.9513,19.663 41.9473,14.659 L41.9483,14.659 C36.9453,9.656 28.8473,9.655 23.8433,14.659 C18.8393,19.662 18.8393,27.76 23.8433,32.764 C28.8463,37.766 36.9443,37.767 41.9473,32.764" id="Fill-10" fill="#FFFFFF"></path><path d="M38.2445,131.3303 C41.1935,134.2793 41.1935,139.0793 38.2445,142.0293 C35.2955,144.9783 30.4955,144.9783 27.5465,142.0293 C24.5975,139.0793 24.5975,134.2793 27.5465,131.3303 C30.4965,128.3813 35.2945,128.3813 38.2445,131.3303 M23.8435,127.6273 C18.8515,132.6183 18.8515,140.7403 23.8435,145.7323 C28.8335,150.7223 36.9555,150.7233 41.9475,145.7323 C46.9385,140.7403 46.9385,132.6183 41.9475,127.6273 C36.9565,122.6363 28.8345,122.6363 23.8435,127.6273" id="Fill-12" fill="#FFFFFF"></path><path d="M151.2133,29.0602 C148.2643,32.0102 143.4653,32.0102 140.5153,29.0602 C137.5653,26.1112 137.5653,21.3112 140.5153,18.3622 C143.4643,15.4132 148.2643,15.4132 151.2133,18.3622 C154.1703,21.3192 154.1703,26.1032 151.2133,29.0602 M136.8113,14.6592 L136.8113,14.6592 C131.8203,19.6502 131.8203,27.7722 136.8113,32.7632 C141.8083,37.7602 149.9303,37.7492 154.9163,32.7632 C159.9203,27.7602 159.9203,19.6622 154.9163,14.6592 C149.9243,9.6672 141.8023,9.6672 136.8113,14.6592" id="Fill-14" fill="#FFFFFF"></path><path d="M151.2133,142.029 C148.2643,144.978 143.4653,144.979 140.5153,142.029 C137.5663,139.08 137.5663,134.28 140.5143,131.33 C143.4643,128.382 148.2633,128.381 151.2133,131.33 C154.1623,134.279 154.1623,139.079 151.2133,142.029 M154.9163,127.627 C149.9253,122.636 141.8023,122.636 136.8113,127.628 C131.8203,132.619 131.8203,140.741 136.8123,145.732 C141.8033,150.723 149.9243,150.723 154.9163,145.732 C159.9073,140.74 159.9073,132.618 154.9163,127.627" id="Fill-16" fill="#FFFFFF"></path><path d="M72.9032,36.5129 L105.8562,36.5129 C107.3022,36.5129 108.4742,35.3409 108.4742,33.8949 C108.4742,32.4489 107.3022,31.2759 105.8562,31.2759 L72.9032,31.2759 C71.4572,31.2759 70.2852,32.4489 70.2852,33.8949 C70.2852,35.3409 71.4572,36.5129 72.9032,36.5129" id="Fill-18" fill="#FFFFFF"></path><path d="M105.8563,144.2443 L72.9033,144.2443 C71.4573,144.2443 70.2853,145.4163 70.2853,146.8633 C70.2853,148.3093 71.4573,149.4813 72.9033,149.4813 L105.8563,149.4813 C107.3023,149.4813 108.4743,148.3093 108.4743,146.8633 C108.4743,145.4163 107.3023,144.2443 105.8563,144.2443" id="Fill-20" fill="#FFFFFF"></path><path d="M32.8954,71.2839 C31.4494,71.2839 30.2764,72.4559 30.2764,73.9029 L30.2764,106.8549 C30.2764,108.3019 31.4494,109.4729 32.8954,109.4729 C34.3424,109.4729 35.5144,108.3019 35.5144,106.8549 L35.5144,73.9029 C35.5144,72.4559 34.3424,71.2839 32.8954,71.2839" id="Fill-22" fill="#FFFFFF"></path><path d="M143.245,73.9025 L143.245,106.8545 C143.245,108.3015 144.417,109.4735 145.864,109.4735 C147.31,109.4735 148.482,108.3015 148.482,106.8545 L148.482,73.9025 C148.482,72.4555 147.31,71.2835 145.864,71.2835 C144.417,71.2835 143.245,72.4555 143.245,73.9025" id="Fill-24" fill="#FFFFFF"></path><g id="Group-28" transform="translate(112.000000, 0.758000)"><mask id="mask-4" fill="white"><use xlink:href="#path-3"></use></mask><g id="Clip-27"></g><path d="M25.3646,45.3276 L42.3636,45.3276 C47.3416,45.3276 51.3916,49.3776 51.3916,54.3556 L51.3916,54.4836 C46.5636,58.4426 40.4176,60.7946 33.8646,60.7946 C27.6916,60.7946 21.4586,58.7226 16.3366,54.5146 C16.3366,49.0926 20.6106,45.3276 25.3646,45.3276 M33.8646,66.0316 C49.3986,66.0316 62.7966,55.1186 66.0246,40.0666 C66.3286,38.6526 65.4276,37.2596 64.0136,36.9566 C62.6016,36.6546 61.2076,37.5536 60.9046,38.9676 C60.0386,43.0036 58.2876,46.6846 55.8876,49.8286 C53.9906,44.1756 48.6466,40.0906 42.3636,40.0906 L25.3646,40.0906 C19.0776,40.0906 13.7306,44.1806 11.8366,49.8386 C8.3056,45.1936 6.2056,39.4076 6.2056,33.1366 C6.2056,17.8856 18.6136,5.4786 33.8646,5.4786 C47.0636,5.4786 58.4786,14.8656 61.0066,27.7996 C61.2826,29.2186 62.6606,30.1456 64.0776,29.8676 C65.4976,29.5896 66.4236,28.2146 66.1456,26.7956 C63.1386,11.4086 49.5626,0.2416 33.8646,0.2416 C15.7256,0.2416 0.9686,14.9976 0.9686,33.1366 C0.9686,51.3626 15.7856,66.0316 33.8646,66.0316" id="Fill-26" fill="#FFFFFF" mask="url(#mask-4)"></path></g><path d="M15.368,168.2409 C15.368,162.8189 19.642,159.0539 24.396,159.0539 L41.395,159.0539 C46.154,159.0539 50.423,162.8229 50.423,168.2409 C40.285,176.5689 25.618,176.6599 15.368,168.2409 M39.531,114.6369 C38.117,114.3489 36.73,115.2609 36.44,116.6769 C36.15,118.0939 37.063,119.4779 38.48,119.7679 C51.27,122.3889 60.554,133.7849 60.554,146.8629 C60.554,153.1329 58.453,158.9199 54.923,163.5649 C53.029,157.9069 47.682,153.8169 41.395,153.8169 L24.396,153.8169 C18.109,153.8169 12.763,157.9069 10.868,163.5649 C7.338,158.9209 5.238,153.1339 5.238,146.8629 C5.238,133.7839 14.521,122.3889 27.311,119.7679 C28.728,119.4779 29.641,118.0939 29.351,116.6769 C29.061,115.2609 27.677,114.3489 26.26,114.6369 C11.044,117.7559 0,131.3079 0,146.8629 C0,164.9689 14.702,179.7579 32.895,179.7579 C51.049,179.7579 65.791,164.9949 65.791,146.8629 C65.791,131.3079 54.747,117.7559 39.531,114.6369" id="Fill-29" fill="#FFFFFF"></path></g></g></svg> 