<?xml version="1.0" encoding="UTF-8"?> <svg xmlns="http://www.w3.org/2000/svg" xmlns:xlink="http://www.w3.org/1999/xlink" width="135px" height="160px" viewBox="0 0 135 160" version="1.1"><title>Group 39</title><defs><polygon id="path-1" points="0 0.429 92.75825 0.429 92.75825 139.6436 0 139.6436"></polygon><polygon id="path-3" points="0.1963 0.8638 21.339 0.8638 21.339 5.1998 0.1963 5.1998"></polygon></defs><g id="Page-1" stroke="none" stroke-width="1" fill="none" fill-rule="evenodd"><g id="Group-39"><path d="M56.8022,59.7697 C56.7282,59.6957 56.6562,59.6227 56.5822,59.5487 C56.6562,59.6227 56.7282,59.6957 56.8022,59.7697" id="Fill-1" fill="#FFFFFF"></path><path d="M78.5995,81.6638 C78.3555,81.4188 78.0555,81.1178 77.7235,80.7838 C78.0555,81.1178 78.3555,81.4188 78.5995,81.6638" id="Fill-3" fill="#FFFFFF"></path><path d="M56.5825,59.5485 C55.6965,58.6585 54.8385,57.7975 54.0195,56.9755 C54.8385,57.7975 55.6965,58.6585 56.5825,59.5485" id="Fill-5" fill="#FFFFFF"></path><path d="M54.02,56.9753 C50.78,53.7203 48.165,51.0933 46.925,49.8483 C48.165,51.0933 50.78,53.7213 54.02,56.9753" id="Fill-7" fill="#FFFFFF"></path><path d="M58.9081,61.885 C58.1951,61.169 57.4901,60.46 56.8021,59.77 C57.4901,60.46 58.1951,61.169 58.9081,61.885" id="Fill-9" fill="#FFFFFF"></path><path d="M77.7231,80.7839 C75.0861,78.1349 69.8271,72.8519 64.3281,67.3289 C69.8261,72.8519 75.0861,78.1349 77.7231,80.7839" id="Fill-11" fill="#FFFFFF"></path><path d="M46.9252,49.8483 C46.6032,49.5253 46.3712,49.2923 46.2482,49.1693 C46.3712,49.2923 46.6032,49.5253 46.9252,49.8483" id="Fill-13" fill="#FFFFFF"></path><path d="M64.3281,67.3288 C62.5151,65.5078 60.6821,63.6668 58.9081,61.8848 C60.6821,63.6668 62.5151,65.5078 64.3281,67.3288" id="Fill-15" fill="#FFFFFF"></path><path d="M79.3798,82.4475 C79.4478,82.5165 79.4868,82.5555 79.4868,82.5555 C79.4868,82.5555 79.4478,82.5165 79.3798,82.4475" id="Fill-17" fill="#FFFFFF"></path><g id="Group-21" transform="translate(0.000000, 0.571000)"><mask id="mask-2" fill="white"><use xlink:href="#path-1"></use></mask><g id="Clip-20"></g><path d="M22.454,134.9976 C12.634,134.9976 4.645,127.0086 4.645,117.1886 C4.645,107.3696 12.634,99.3806 22.454,99.3806 C32.274,99.3806 40.263,107.3696 40.263,117.1886 C40.263,127.0086 32.274,134.9976 22.454,134.9976 L22.454,134.9976 Z M31.377,81.9966 L23.719,74.3036 L44.502,53.4296 L52.161,61.1226 L31.377,81.9966 Z M58.716,39.1516 L79.499,18.2766 L87.158,25.9696 L66.375,46.8436 L58.716,39.1516 Z M57.761,33.5266 L55.438,35.8596 L53.115,33.5266 L53.115,7.3966 C53.115,6.1156 54.157,5.0736 55.438,5.0736 C56.058,5.0736 56.639,5.3146 57.082,5.7596 C57.52,6.1956 57.761,6.7776 57.761,7.3966 L57.761,33.5266 Z M48.47,129.1906 C48.47,130.4736 49.509,131.5136 50.792,131.5136 C52.076,131.5136 53.115,130.4736 53.115,129.1906 L53.115,66.7476 L55.438,64.4146 L57.761,66.7476 L57.761,79.6366 C57.761,80.9196 58.801,81.9596 60.084,81.9596 C61.367,81.9596 62.407,80.9196 62.407,79.6366 L62.407,71.4136 L77.852,86.9276 C78.288,87.3656 78.881,87.6116 79.499,87.6116 C80.117,87.6116 80.709,87.3656 81.145,86.9276 L92.081,75.9426 C92.984,75.0366 92.984,73.5716 92.081,72.6646 L69.652,50.1366 L92.081,27.6086 C92.984,26.7026 92.984,25.2376 92.081,24.3306 L81.146,13.3456 C80.71,12.9076 80.118,12.6616 79.499,12.6616 C78.882,12.6616 78.289,12.9076 77.854,13.3456 L62.407,28.8606 L62.407,7.3966 C62.407,5.5326 61.68,3.7826 60.366,2.4746 C59.052,1.1546 57.302,0.4286 55.438,0.4286 C51.596,0.4286 48.47,3.5546 48.47,7.3966 L48.47,28.8596 L33.024,13.3456 C32.588,12.9076 31.996,12.6616 31.378,12.6616 C30.76,12.6616 30.168,12.9076 29.731,13.3456 L18.795,24.3306 C17.892,25.2366 17.892,26.7026 18.795,27.6086 L24.105,32.9416 C25.01,33.8516 26.481,33.8536 27.39,32.9486 C28.299,32.0436 28.302,30.5726 27.397,29.6646 L23.719,25.9696 L31.377,18.2766 L87.158,74.3036 L79.499,81.9966 L79.487,81.9846 L79.24,81.7366 C79.288,81.7846 79.347,81.8436 79.38,81.8766 C79.258,81.7536 79.026,81.5216 78.707,81.2006 C78.832,81.3266 78.938,81.4336 79.035,81.5306 L34.762,37.0616 C33.856,36.1516 32.386,36.1496 31.477,37.0546 C30.568,37.9596 30.565,39.4306 31.47,40.3396 L41.225,50.1376 L18.795,72.6646 C17.892,73.5706 17.892,75.0356 18.795,75.9426 L29.73,86.9276 C30.166,87.3656 30.759,87.6116 31.377,87.6116 C31.995,87.6116 32.587,87.3656 33.022,86.9276 L48.47,71.4136 L48.47,114.5566 L44.748,114.5566 C43.44,103.4126 33.944,94.7356 22.454,94.7356 C10.073,94.7356 0,104.8076 0,117.1886 C0,129.5706 10.073,139.6436 22.454,139.6436 C34.156,139.6436 43.791,130.6436 44.813,119.2026 L48.47,119.2026 L48.47,129.1906 Z" id="Fill-19" fill="#FFFFFF" mask="url(#mask-2)"></path></g><path d="M78.707,81.7717 C78.672,81.7367 78.636,81.7007 78.6,81.6637 C78.636,81.7007 78.672,81.7367 78.707,81.7717" id="Fill-22" fill="#FFFFFF"></path><path d="M46.2485,49.1691 C46.1805,49.1001 46.1415,49.0611 46.1415,49.0611 C46.1415,49.0611 46.1805,49.1001 46.2485,49.1691" id="Fill-24" fill="#FFFFFF"></path><path d="M22.454,126.2771 C17.758,126.2771 13.937,122.4571 13.937,117.7601 C13.937,113.0641 17.758,109.2431 22.454,109.2431 C27.15,109.2431 30.971,113.0641 30.971,117.7601 C30.971,122.4571 27.15,126.2771 22.454,126.2771 M22.454,104.5971 C15.196,104.5971 9.291,110.5021 9.291,117.7601 C9.291,125.0181 15.196,130.9231 22.454,130.9231 C29.712,130.9231 35.617,125.0181 35.617,117.7601 C35.617,110.5021 29.712,104.5971 22.454,104.5971" id="Fill-26" fill="#FFFFFF"></path><path d="M88.4223,135.5686 C78.6023,135.5686 70.6143,127.5796 70.6143,117.7596 C70.6143,107.9406 78.6023,99.9516 88.4223,99.9516 C98.2423,99.9516 106.2313,107.9406 106.2313,117.7596 C106.2313,127.5796 98.2423,135.5686 88.4223,135.5686 M88.4223,95.3066 C76.9323,95.3066 67.4363,103.9836 66.1283,115.1276 L62.4063,115.1276 L62.4063,90.1186 C62.4063,88.8356 61.3673,87.7956 60.0843,87.7956 C58.8003,87.7956 57.7613,88.8356 57.7613,90.1186 L57.7613,154.9256 L53.1153,154.9256 L53.1153,139.7496 C53.1153,138.4666 52.0753,137.4266 50.7923,137.4266 C49.5093,137.4266 48.4693,138.4666 48.4693,139.7496 L48.4693,157.2486 C48.4693,158.5306 49.5093,159.5706 50.7923,159.5706 L60.0843,159.5706 C61.3673,159.5706 62.4063,158.5306 62.4063,157.2486 L62.4063,119.7736 L66.0633,119.7736 C67.0853,131.2146 76.7203,140.2146 88.4223,140.2146 C100.8033,140.2146 110.8763,130.1416 110.8763,117.7596 C110.8763,105.3786 100.8033,95.3066 88.4223,95.3066" id="Fill-28" fill="#FFFFFF"></path><path d="M88.4223,126.2771 C83.7263,126.2771 79.9053,122.4571 79.9053,117.7601 C79.9053,113.0641 83.7263,109.2431 88.4223,109.2431 C93.1183,109.2431 96.9393,113.0641 96.9393,117.7601 C96.9393,122.4571 93.1183,126.2771 88.4223,126.2771 M88.4223,104.5971 C81.1643,104.5971 75.2593,110.5021 75.2593,117.7601 C75.2593,125.0181 81.1643,130.9231 88.4223,130.9231 C95.6803,130.9231 101.5853,125.0181 101.5853,117.7601 C101.5853,110.5021 95.6803,104.5971 88.4223,104.5971" id="Fill-30" fill="#FFFFFF"></path><g id="Group-34" transform="translate(113.000000, 114.571000)"><mask id="mask-4" fill="white"><use xlink:href="#path-3"></use></mask><g id="Clip-33"></g><path d="M19.1713,0.8638 L2.3643,0.8638 C1.1673,0.8638 0.1963,1.8338 0.1963,3.0318 C0.1963,4.2288 1.1673,5.1998 2.3643,5.1998 L19.1713,5.1998 C20.3693,5.1998 21.3393,4.2288 21.3393,3.0318 C21.3393,1.8338 20.3693,0.8638 19.1713,0.8638" id="Fill-32" fill="#FFFFFF" mask="url(#mask-4)"></path></g><path d="M112.1484,102.9362 C112.7034,102.9362 113.2574,102.7242 113.6814,102.3012 L130.2694,85.7132 C131.1154,84.8672 131.1154,83.4942 130.2694,82.6472 C129.4224,81.8012 128.0494,81.8012 127.2034,82.6472 L110.6154,99.2352 C109.7684,100.0822 109.7684,101.4542 110.6154,102.3012 C111.0384,102.7242 111.5934,102.9362 112.1484,102.9362" id="Fill-35" fill="#FFFFFF"></path><path d="M113.6816,132.9035 C112.8346,132.0575 111.4616,132.0575 110.6156,132.9035 C109.7686,133.7505 109.7686,135.1225 110.6156,135.9695 L127.2026,152.5575 C127.6266,152.9805 128.1816,153.1925 128.7356,153.1925 C129.2906,153.1925 129.8456,152.9805 130.2686,152.5575 C131.1156,151.7105 131.1156,150.3385 130.2686,149.4915 L113.6816,132.9035 Z" id="Fill-37" fill="#FFFFFF"></path></g></g></svg> 