<?xml version="1.0" encoding="UTF-8"?> <svg xmlns="http://www.w3.org/2000/svg" width="70" height="70" viewBox="0 0 70 70"><g fill="none" fill-rule="evenodd"><g fill="#FCD03E" fill-rule="nonzero"><g><path d="M69.378 64.619L45.144 30.085c-.21-.298-.462-.556-.747-.77v-7.44h17.09c.745 0 1.43-.404 1.793-1.055.361-.65.341-1.447-.052-2.08l-3.58-5.752 3.58-5.752c.394-.633.413-1.429.052-2.08-.362-.65-1.048-1.054-1.793-1.054h-17.09V2.05C44.397.918 43.48 0 42.347 0c-1.133 0-2.051.918-2.051 2.05v27.265c-.285.214-.538.472-.748.77L28.142 46.339l-4.398-6.1c-.64-.888-1.677-1.418-2.772-1.418-1.096 0-2.132.53-2.773 1.419L.648 64.583c-.754 1.046-.858 2.409-.27 3.556C.965 69.287 2.13 70 3.42 70h63.16c1.28 0 2.442-.706 3.033-1.841.59-1.136.5-2.493-.235-3.54zm-49.95 1.28l13.192-18.8L36 50.25c.787.734 2.008.734 2.796 0l3.55-3.308 3.55 3.308c.394.367.897.55 1.399.55s1.004-.183 1.398-.55l3.38-3.15 13.192 18.8H19.427zm-4.113-1.28c-.276.392-.46.828-.553 1.28H4.756l16.216-22.491 4.676 6.485L15.315 64.62zm27.031-31.38l7.349 10.47-2.4 2.236-3.551-3.308c-.788-.734-2.009-.733-2.796 0l-3.55 3.308-2.4-2.235 7.348-10.472zm15.45-25.036l-2.304 3.702c-.413.663-.413 1.503 0 2.167l2.304 3.701H44.397v-9.57h13.399z" transform="translate(-298 -1053) translate(298 1053)"></path></g></g></g></svg> 