<?xml version="1.0" encoding="UTF-8"?> <svg xmlns="http://www.w3.org/2000/svg" width="62" height="66" viewBox="0 0 62 66"><g fill="none" fill-rule="evenodd"><g fill="#01B187" fill-rule="nonzero"><g><path d="M52.119 3.882h-1.744v-1.94C50.375.775 49.6 0 48.437 0 47.276 0 46.5.776 46.5 1.941v1.941H32.937v-1.94C32.938.775 32.163 0 31 0s-1.938.776-1.938 1.941v1.941H15.5v-1.94C15.5.775 14.725 0 13.562 0c-1.162 0-1.937.776-1.937 1.941v1.941H9.881C4.456 3.882 0 8.347 0 13.782V56.1C0 61.535 4.456 66 9.881 66H52.12C57.544 66 62 61.535 62 56.1V13.782c0-5.435-4.456-9.9-9.881-9.9zM58.125 56.1c0 3.3-2.712 6.018-6.006 6.018H9.88c-3.293 0-6.006-2.718-6.006-6.018V23.294h54.25V56.1zm0-36.688H3.875v-5.63c0-3.3 2.713-6.017 6.006-6.017h1.744v5.823c0 1.165.775 1.941 1.938 1.941 1.162 0 1.937-.776 1.937-1.94V7.764h13.563v5.823c0 1.165.774 1.941 1.937 1.941s1.938-.776 1.938-1.94V7.764H46.5v5.823c0 1.165.775 1.941 1.938 1.941 1.162 0 1.937-.776 1.937-1.94V7.764h1.744c3.294 0 6.006 2.717 6.006 6.017v5.63z" transform="translate(-688 -1054) translate(688 1054)"></path><path d="M34.543 42.566l16.534-10.97c.985-.577 1.181-1.732.59-2.694-.59-.962-1.77-1.155-2.755-.577L31 40.065l-17.912-11.74c-.984-.578-2.165-.385-2.756.577-.59.962-.394 2.117.59 2.694l16.535 10.97-16.534 10.97c-.985.577-1.181 1.732-.59 2.694.393.578.983.77 1.574.77.394 0 .787-.192 1.18-.385L31 44.875l17.912 11.74c.394.193.787.385 1.181.385.59 0 1.181-.385 1.575-.77.59-.962.394-2.117-.59-2.694l-16.535-10.97z" transform="translate(-688 -1054) translate(688 1054)"></path></g></g></g></svg> 