<?xml version="1.0" encoding="UTF-8"?> <svg xmlns="http://www.w3.org/2000/svg" xmlns:xlink="http://www.w3.org/1999/xlink" width="136px" height="137px" viewBox="0 0 136 137" version="1.1"><title>Group 8</title><defs><polygon id="path-1" points="0.0001 0.207 135.793 0.207 135.793 135.9997 0.0001 135.9997"></polygon></defs><g id="Page-1" stroke="none" stroke-width="1" fill="none" fill-rule="evenodd"><g id="Group-8"><g id="Group-3" transform="translate(0.000000, 0.793000)"><mask id="mask-2" fill="white"><use xlink:href="#path-1"></use></mask><g id="Clip-2"></g><path d="M131.4131,44.0107 L131.4131,44.4667 L126.4341,45.6377 L126.1151,46.9437 C125.3791,49.9567 124.1851,52.8307 122.5731,55.4917 L121.8771,56.6367 L124.5681,60.9877 L117.7281,67.8267 L113.3791,65.1357 L112.2331,65.8317 C109.5721,67.4437 106.6981,68.6377 103.6841,69.3737 L102.3801,69.6937 L101.2051,74.6737 L91.5331,74.6737 L90.3611,69.6957 L89.0571,69.3757 C86.0431,68.6397 83.1691,67.4467 80.5081,65.8337 L79.3621,65.1377 L75.0131,67.8287 L68.1731,60.9897 L70.8641,56.6397 L70.1681,55.4937 C68.6351,52.9667 67.4961,50.2417 66.7531,47.3897 C67.4701,46.1707 67.8961,44.7907 67.8961,43.3247 C67.8961,39.3867 65.0601,36.1107 61.3261,35.4037 L61.3261,34.7967 L66.3051,33.6247 L66.6241,32.3197 C67.3601,29.3057 68.5541,26.4317 70.1661,23.7707 L70.8621,22.6257 L68.1701,18.2757 L75.0111,11.4357 L79.3601,14.1277 L80.5061,13.4307 C83.1671,11.8187 86.0411,10.6247 89.0551,9.8887 L90.3591,9.5697 L91.5331,4.5867 L101.2051,4.5867 L102.3771,9.5657 L103.6831,9.8847 C106.6961,10.6207 109.5701,11.8147 112.2311,13.4267 L113.3771,14.1227 L117.7261,11.4307 L124.5661,18.2717 L121.8751,22.6207 L122.5711,23.7667 C124.1841,26.4277 125.3771,29.3017 126.1131,32.3147 L126.4331,33.6197 L131.4131,34.7947 L131.4131,44.0107 Z M131.4131,131.6197 L16.3041,131.6197 C17.0581,130.3247 17.5211,128.8427 17.5211,127.2397 L17.5211,123.6147 L28.7351,115.7777 C28.7751,115.8197 28.8041,115.8697 28.8451,115.9107 C30.5011,117.5667 32.7021,118.4777 35.0411,118.4777 C39.8731,118.4777 43.8041,114.5467 43.8041,109.7157 L43.8041,105.3237 L87.1461,75.1557 L88.0641,79.0537 L104.6751,79.0537 L106.0331,73.2827 C108.5711,72.5557 111.0161,71.5417 113.3301,70.2587 L118.3751,73.3817 L130.1211,61.6357 L126.9981,56.5917 C128.2811,54.2767 129.2951,51.8317 130.0211,49.2937 L131.4131,48.9677 L131.4131,131.6197 Z M13.1411,127.2397 C13.1411,129.6547 11.1771,131.6197 8.7611,131.6197 C6.3451,131.6197 4.3801,129.6547 4.3801,127.2397 L4.3801,94.3287 C6.2161,95.7197 8.4761,96.5757 10.9511,96.5757 L13.1411,96.5757 L13.1411,127.2397 Z M26.5961,111.9297 L17.5211,118.2697 L17.5211,96.5757 L26.2821,96.5757 L26.2801,109.7127 L26.2801,109.7157 C26.2801,110.4777 26.4101,111.2107 26.5961,111.9297 L26.5961,111.9297 Z M74.3641,73.3817 L79.4081,70.2587 C80.7861,71.0227 82.2231,71.6577 83.6851,72.2277 L43.8041,99.9887 L43.8041,90.0057 C43.8041,83.9667 38.8921,79.0537 32.8531,79.0537 L28.4731,79.0537 L28.4731,63.7227 L41.4851,63.7227 C44.8801,63.7227 48.2221,62.5767 50.8981,60.4917 L63.2361,50.8967 C63.9041,52.8637 64.7291,54.7717 65.7411,56.5917 L62.6181,61.6357 L74.3641,73.3817 Z M4.3801,68.1027 C4.3801,59.6517 11.2601,52.7717 19.7121,52.7717 L37.9631,52.7717 C39.3781,52.7717 40.7771,52.3027 41.9051,51.4547 L56.6891,40.3677 C57.3271,39.8927 58.1131,39.6307 58.9081,39.6307 L59.8231,39.6307 C61.8581,39.6307 63.5161,41.2877 63.5161,43.3247 C63.5161,44.4727 62.9971,45.5347 62.0901,46.2397 L48.2091,57.0377 C46.2991,58.5227 43.9121,59.3427 41.4851,59.3427 L24.0921,59.3427 L24.0921,83.4347 L32.8531,83.4347 C36.4751,83.4347 39.4241,86.3827 39.4241,90.0057 L39.4241,109.7157 C39.4241,112.1337 37.4591,114.0977 35.0411,114.0977 C33.8711,114.0977 32.7701,113.6417 31.9421,112.8147 C31.1161,111.9867 30.6611,110.8867 30.6611,109.7177 L30.6631,96.5757 C30.6631,94.1597 28.6981,92.1957 26.2821,92.1957 L10.9511,92.1957 C7.3281,92.1957 4.3801,89.2477 4.3801,85.6247 L4.3801,68.1027 Z M10.9511,37.4397 C10.9511,31.4017 15.8641,26.4887 21.9021,26.4887 C27.9401,26.4887 32.8531,31.4017 32.8531,37.4397 C32.8531,43.4787 27.9401,48.3907 21.9021,48.3907 C15.8641,48.3907 10.9511,43.4787 10.9511,37.4397 L10.9511,37.4397 Z M130.0211,29.9667 C129.2951,27.4287 128.2811,24.9847 126.9981,22.6697 L130.1211,17.6247 L118.3751,5.8787 L113.3301,9.0027 C111.0161,7.7187 108.5711,6.7047 106.0331,5.9777 L104.6751,0.2067 L88.0641,0.2067 L86.7061,5.9777 C84.1681,6.7047 81.7241,7.7187 79.4081,9.0027 L74.3641,5.8787 L62.6181,17.6247 L65.7411,22.6697 C64.4581,24.9847 63.4441,27.4287 62.7171,29.9667 L56.9451,31.3247 L56.9451,35.5217 C55.9101,35.7817 54.9201,36.2217 54.0631,36.8657 L39.2771,47.9527 C38.9001,48.2357 38.4341,48.3907 37.9631,48.3907 L32.6101,48.3907 C35.4591,45.6057 37.2331,41.7287 37.2331,37.4397 C37.2331,28.9887 30.3541,22.1087 21.9021,22.1087 C13.4501,22.1087 6.5701,28.9887 6.5701,37.4397 C6.5701,42.4507 8.9971,46.8927 12.7271,49.6927 C5.3001,52.5197 0.0001,59.6947 0.0001,68.1027 L0.0001,85.6247 L0.0001,127.2397 C0.0001,132.0707 3.9291,135.9997 8.7611,135.9997 L135.7931,135.9997 L135.7931,47.9357 L135.7931,44.0107 L135.7931,31.3247 L130.0211,29.9667 Z" id="Fill-1" fill="#8698E2" mask="url(#mask-2)"></path></g><path d="M96.3691,62.3252 C84.2931,62.3252 74.4671,52.5002 74.4671,40.4232 C74.4671,28.3462 84.2931,18.5212 96.3691,18.5212 C108.4461,18.5212 118.2711,28.3462 118.2711,40.4232 C118.2711,52.5002 108.4461,62.3252 96.3691,62.3252 M96.3691,14.1402 C81.8771,14.1402 70.0871,25.9302 70.0871,40.4232 C70.0871,54.9162 81.8771,66.7062 96.3691,66.7062 C110.8621,66.7062 122.6521,54.9162 122.6521,40.4232 C122.6521,25.9302 110.8621,14.1402 96.3691,14.1402" id="Fill-4" fill="#8698E2"></path><path d="M96.3691,49.1841 C91.5381,49.1841 87.6081,45.2551 87.6081,40.4231 C87.6081,35.5921 91.5381,31.6631 96.3691,31.6631 C101.2011,31.6631 105.1311,35.5921 105.1311,40.4231 C105.1311,45.2551 101.2011,49.1841 96.3691,49.1841 M96.3691,27.2821 C89.1221,27.2821 83.2281,33.1761 83.2281,40.4231 C83.2281,47.6711 89.1221,53.5641 96.3691,53.5641 C103.6171,53.5641 109.5111,47.6711 109.5111,40.4231 C109.5111,33.1761 103.6171,27.2821 96.3691,27.2821" id="Fill-6" fill="#8698E2"></path></g></g></svg> 