<?xml version="1.0" encoding="UTF-8"?> <svg xmlns="http://www.w3.org/2000/svg" width="62" height="66" viewBox="0 0 62 66"><g fill="none" fill-rule="evenodd"><g fill="#375CD1" fill-rule="nonzero"><g transform="translate(-1078 -1258) translate(1078 1258)"><path d="M31 0C13.868 0 0 13.837 0 30.937c0 7.497 2.7 14.68 7.62 20.315v12.813c0 1.727 2.096 2.577 3.308 1.367l6.627-6.613C37.935 68.604 62 53.9 62 30.937 62 13.839 48.135 0 31 0zM18.104 54.757c-.754-.407-1.686-.271-2.293.334l-4.315 4.306v-8.883c0-.483-.182-.949-.508-1.305-4.587-5-7.113-11.49-7.113-18.272C3.875 16.01 16.043 3.867 31 3.867s27.125 12.143 27.125 27.07c0 20.539-22.1 33.505-40.021 23.82z"></path><path d="M31 14c-6.617 0-12 5.206-12 11.604 0 1.067.895 1.933 1.999 1.933s1.999-.866 1.999-1.933c0-4.267 3.59-7.738 8.002-7.738 4.413 0 8.002 3.471 8.002 7.738s-3.59 7.738-8.002 7.738c-1.104 0-1.999.865-1.999 1.933v5.792c0 1.068.895 1.933 1.999 1.933s1.999-.865 1.999-1.933v-4.02C38.668 36.124 43 31.344 43 25.604 43 19.206 37.617 14 31 14z"></path><circle cx="31" cy="48" r="2"></circle></g></g></g></svg> 