<?xml version="1.0" encoding="UTF-8"?> <svg xmlns="http://www.w3.org/2000/svg" xmlns:xlink="http://www.w3.org/1999/xlink" width="251px" height="79px" viewBox="0 0 251 79" version="1.1"><title>Group 10</title><defs><polygon id="path-1" points="0.9097 0.492 180.6987 0.492 180.6987 77.9998 0.9097 77.9998"></polygon></defs><g id="Page-1" stroke="none" stroke-width="1" fill="none" fill-rule="evenodd"><g id="Group-10"><g id="Group-3" transform="translate(70.000000, 0.507800)"><mask id="mask-2" fill="white"><use xlink:href="#path-1"></use></mask><g id="Clip-2"></g><path d="M166.1237,63.4258 C159.6647,69.8848 151.0777,73.4408 141.9437,73.4408 C132.8107,73.4408 124.2267,69.8858 117.7697,63.4288 C112.7027,58.3618 109.4027,51.9718 108.2247,44.9478 C108.0397,43.8498 107.0897,43.0458 105.9757,43.0458 L58.2097,43.0458 C57.6057,43.0458 57.0257,43.2858 56.5987,43.7138 C56.1707,44.1408 55.9307,44.7208 55.9307,45.3248 L55.9307,60.5228 C55.9307,61.5378 55.5357,62.4918 54.8177,63.2098 C54.0997,63.9268 53.1457,64.3228 52.1307,64.3228 C51.1157,64.3228 50.1617,63.9268 49.4447,63.2098 C48.7267,62.4918 48.3317,61.5378 48.3317,60.5228 L48.3317,51.4038 C48.3317,50.1448 47.3107,49.1248 46.0517,49.1238 L33.8937,49.1238 C32.6337,49.1248 31.6137,50.1448 31.6137,51.4038 L31.6137,60.5228 C31.6137,62.6178 29.9097,64.3228 27.8137,64.3228 C26.7997,64.3228 25.8447,63.9268 25.1277,63.2098 C24.4107,62.4918 24.0147,61.5378 24.0147,60.5228 L24.0147,45.3248 C24.0147,44.6958 23.7597,44.1258 23.3467,43.7138 C22.9347,43.3008 22.3647,43.0458 21.7347,43.0458 L9.2687,43.0458 C8.2537,43.0458 7.2987,42.6508 6.5817,41.9328 C5.8637,41.2158 5.4687,40.2608 5.4687,39.2458 C5.4687,37.1508 7.1727,35.4468 9.2687,35.4468 L105.9757,35.4468 C107.0897,35.4468 108.0407,34.6418 108.2247,33.5438 C110.9947,17.0338 125.1757,5.0508 141.9437,5.0508 C151.0777,5.0508 159.6647,8.6078 166.1237,15.0668 C172.5817,21.5248 176.1387,30.1128 176.1387,39.2458 C176.1387,48.3798 172.5817,56.9678 166.1237,63.4258 M169.3477,11.8428 C162.0277,4.5228 152.2957,0.4918 141.9437,0.4918 C132.7237,0.4918 123.7897,3.7858 116.7877,9.7678 C110.3587,15.2588 105.9017,22.7018 104.0967,30.8878 L9.2687,30.8868 C4.6597,30.8868 0.9097,34.6368 0.9097,39.2458 C0.9097,41.4788 1.7787,43.5778 3.3577,45.1568 C4.9367,46.7358 7.0357,47.6048 9.2687,47.6048 L19.4557,47.6048 L19.4557,60.5238 C19.4557,62.7558 20.3247,64.8558 21.9037,66.4338 C23.4827,68.0128 25.5817,68.8828 27.8147,68.8828 C32.4237,68.8818 36.1727,65.1318 36.1737,60.5238 L36.1727,53.6838 L43.7727,53.6838 L43.7727,60.5228 C43.7727,62.7558 44.6417,64.8548 46.2207,66.4338 C47.7997,68.0128 49.8987,68.8828 52.1307,68.8818 C54.3637,68.8818 56.4627,68.0128 58.0417,66.4338 C59.6207,64.8548 60.4907,62.7558 60.4907,60.5228 L60.4897,47.6048 L104.0947,47.6048 C105.6767,54.8198 109.2637,61.3708 114.5427,66.6508 C121.8627,73.9688 131.5927,77.9998 141.9437,77.9998 C152.2947,77.9998 162.0277,73.9688 169.3467,66.6488 C176.6667,59.3298 180.6987,49.5978 180.6987,39.2458 C180.6987,28.8948 176.6667,19.1618 169.3477,11.8428" id="Fill-1" fill="#EB4B51" mask="url(#mask-2)"></path></g><path d="M230.7502,20.9477 C225.7272,15.9247 219.0482,13.1577 211.9432,13.1577 C197.2782,13.1577 185.3472,25.0887 185.3472,39.7537 C185.3472,46.8587 188.1142,53.5367 193.1372,58.5607 C198.1612,63.5837 204.8402,66.3507 211.9432,66.3507 C218.6382,66.3507 225.0362,63.8517 229.9602,59.3137 C230.8862,58.4607 230.9452,57.0177 230.0922,56.0927 C229.2412,55.1647 227.7962,55.1077 226.8712,55.9607 C222.7922,59.7197 217.4902,61.7907 211.9442,61.7907 C206.0582,61.7907 200.5232,59.4987 196.3612,55.3367 C192.1992,51.1747 189.9072,45.6407 189.9072,39.7537 C189.9072,27.6027 199.7922,17.7177 211.9432,17.7177 C217.8302,17.7167 223.3642,20.0097 227.5262,24.1717 C231.6892,28.3337 233.9812,33.8677 233.9802,39.7537 C233.9812,43.0737 233.2612,46.2647 231.8392,49.2397 C231.2962,50.3747 231.7772,51.7367 232.9142,52.2787 C234.0492,52.8217 235.4112,52.3407 235.9532,51.2047 C237.6702,47.6117 238.5402,43.7587 238.5402,39.7537 C238.5402,32.6497 235.7732,25.9707 230.7502,20.9477" id="Fill-4" fill="#EB4B51"></path><polygon id="Fill-6" fill="#EB4B51" points="41.0305 36.7397 23.4415 36.7397 23.4415 38.7627 14.5505 38.7627 14.5505 42.9397 23.4415 42.9397 23.4415 44.9627 41.0305 44.9627 41.0305 42.9397 49.9225 42.9397 49.9225 38.7627 41.0305 38.7627"></polygon><path d="M32.236,69.0874 C16.667,69.0874 4,56.4204 4,40.8514 C4,25.2814 16.667,12.6154 32.236,12.6154 C47.805,12.6154 60.472,25.2814 60.472,40.8514 C60.472,56.4204 47.805,69.0874 32.236,69.0874 M32.236,8.6154 C14.461,8.6154 0,23.0764 0,40.8514 C0,58.6264 14.461,73.0874 32.236,73.0874 C50.011,73.0874 64.472,58.6264 64.472,40.8514 C64.472,23.0764 50.011,8.6154 32.236,8.6154" id="Fill-8" fill="#EB4B51"></path></g></g></svg> 