<?xml version="1.0" encoding="UTF-8"?> <svg xmlns="http://www.w3.org/2000/svg" width="75" height="80" viewBox="0 0 75 80"><g fill="none" fill-rule="evenodd"><g fill="#8E3F88" fill-rule="nonzero"><g><path d="M15.202 0H2.798C1.263 0 0 1.234 0 2.734v74.532C0 78.766 1.263 80 2.798 80h12.404C16.737 80 18 78.766 18 77.266V2.734C18 1.234 16.737 0 15.202 0zm.4 77.266c0 .218-.176.39-.4.39H2.798c-.224 0-.4-.172-.4-.39v-1.954H7.8c.655 0 1.199-.53 1.199-1.171s-.544-1.172-1.199-1.172H2.398v-4.485h3.005c.656 0 1.2-.53 1.2-1.171s-.544-1.172-1.2-1.172H2.398v-4.485H7.8c.655 0 1.199-.531 1.199-1.172 0-.64-.544-1.172-1.199-1.172H2.398v-4.484h3.005c.656 0 1.2-.531 1.2-1.172 0-.64-.544-1.172-1.2-1.172H2.398V48H7.8C8.456 48 9 47.469 9 46.828c0-.64-.544-1.172-1.199-1.172H2.398v-4.484h3.005c.656 0 1.2-.531 1.2-1.172 0-.64-.544-1.172-1.2-1.172H2.398v-4.484H7.8c.655 0 1.199-.532 1.199-1.172C9 32.532 8.456 32 7.801 32H2.398v-4.484h3.005c.656 0 1.2-.532 1.2-1.172 0-.64-.544-1.172-1.2-1.172H2.398v-4.485H7.8c.655 0 1.199-.53 1.199-1.171s-.544-1.172-1.199-1.172H2.398v-4.485h3.005c.656 0 1.2-.53 1.2-1.171s-.544-1.172-1.2-1.172H2.398V7.03H7.8C8.456 7.031 9 6.5 9 5.86c0-.64-.528-1.171-1.199-1.171H2.398V2.734c0-.218.176-.39.4-.39h12.404c.224 0 .4.172.4.39v74.532zM72.202 0H59.798C58.263 0 57 1.234 57 2.734v74.532c0 1.5 1.263 2.734 2.798 2.734h12.404C73.737 80 75 78.766 75 77.266V2.734C75 1.234 73.753 0 72.202 0zm.4 77.266c0 .218-.176.39-.4.39H59.798c-.224 0-.4-.172-.4-.39v-1.954H64.8c.655 0 1.199-.53 1.199-1.171s-.544-1.172-1.199-1.172h-5.403v-4.485h3.005c.656 0 1.2-.53 1.2-1.171s-.544-1.172-1.2-1.172h-3.005v-4.485H64.8c.655 0 1.199-.531 1.199-1.172 0-.64-.544-1.172-1.199-1.172h-5.403v-4.484h3.005c.656 0 1.2-.531 1.2-1.172 0-.64-.544-1.172-1.2-1.172h-3.005V48H64.8c.655 0 1.199-.531 1.199-1.172 0-.64-.544-1.172-1.199-1.172h-5.403v-4.484h3.005c.656 0 1.2-.531 1.2-1.172 0-.64-.544-1.172-1.2-1.172h-3.005v-4.484H64.8c.655 0 1.199-.532 1.199-1.172 0-.64-.544-1.172-1.199-1.172h-5.403v-4.484h3.005c.656 0 1.2-.532 1.2-1.172 0-.64-.544-1.172-1.2-1.172h-3.005v-4.485H64.8c.655 0 1.199-.53 1.199-1.171s-.544-1.172-1.199-1.172h-5.403v-4.485h3.005c.656 0 1.2-.53 1.2-1.171s-.544-1.172-1.2-1.172h-3.005V7.03H64.8C65.456 7.031 66 6.5 66 5.86c0-.64-.544-1.171-1.199-1.171h-5.403V2.734c0-.218.176-.39.4-.39h12.404c.224 0 .4.172.4.39v74.532zM34.202 27H21.798C20.263 27 19 28.242 19 29.75v47.5c0 1.508 1.263 2.75 2.798 2.75h12.404C35.737 80 37 78.758 37 77.25V29.75C37 28.24 35.753 27 34.202 27zm.4 50.25c0 .22-.176.392-.4.392H21.798c-.224 0-.4-.173-.4-.393v-1.964H26.8c.655 0 1.199-.535 1.199-1.18 0-.644-.544-1.178-1.199-1.178h-5.403v-4.51h3.005c.656 0 1.2-.535 1.2-1.18 0-.644-.544-1.179-1.2-1.179h-3.005v-4.51H26.8c.655 0 1.199-.535 1.199-1.18 0-.644-.544-1.178-1.199-1.178h-5.403v-4.511h3.005c.656 0 1.2-.535 1.2-1.179s-.544-1.179-1.2-1.179h-3.005v-4.51H26.8c.655 0 1.199-.535 1.199-1.18 0-.644-.544-1.178-1.199-1.178h-5.403v-4.511h3.005c.656 0 1.2-.535 1.2-1.18 0-.644-.544-1.178-1.2-1.178h-3.005v-4.511H26.8c.655 0 1.199-.534 1.199-1.179 0-.644-.544-1.179-1.199-1.179h-5.403v9.227h3.005c.656 0 1.2-.535 1.2-1.18 0-.644-.544-1.178-1.2-1.178h-3.005v-4.511H26.8c.655 0 1.199-.534 1.199-1.179 0-.644-.544-1.179-1.199-1.179h-5.403v-1.964c0-.22.176-.393.4-.393h12.404c.224 0 .4.173.4.393V77.249zM53.202 14H40.798C39.263 14 38 15.227 38 16.718v60.564C38 78.773 39.263 80 40.798 80h12.404C54.737 80 56 78.773 56 77.282V16.718C56 15.227 54.737 14 53.202 14zm.4 63.282c0 .218-.176.389-.4.389H40.798c-.224 0-.4-.171-.4-.389v-1.94H45.8c.655 0 1.199-.529 1.199-1.166 0-.636-.544-1.164-1.199-1.164h-5.403v-4.457h3.005c.656 0 1.2-.528 1.2-1.165s-.544-1.165-1.2-1.165h-3.005v-4.457H45.8c.655 0 1.199-.528 1.199-1.164 0-.637-.544-1.165-1.199-1.165h-5.403v-4.457h3.005c.656 0 1.2-.528 1.2-1.165 0-.636-.544-1.164-1.2-1.164h-3.005v-4.457H45.8c.655 0 1.199-.528 1.199-1.165s-.544-1.165-1.199-1.165h-5.403V41.41h3.005c.656 0 1.2-.528 1.2-1.164 0-.637-.544-1.165-1.2-1.165h-3.005v-4.457H45.8c.655 0 1.199-.528 1.199-1.165 0-.636-.544-1.164-1.199-1.164h-5.403v9.053h3.005c.656 0 1.2-.528 1.2-1.164 0-.637-.544-1.165-1.2-1.165h-3.005V34.56H45.8c.655 0 1.199-.528 1.199-1.165 0-.636-.544-1.164-1.199-1.164h-5.403v-4.457h3.005c.656 0 1.2-.528 1.2-1.165s-.544-1.165-1.2-1.165h-3.005v-4.457H45.8c.655 0 1.199-.528 1.199-1.164 0-.637-.544-1.165-1.199-1.165h-5.403v-1.941c0-.218.176-.389.4-.389h12.404c.224 0 .4.171.4.389V77.282z" transform="translate(-1072 -1041) translate(1072 1041)"></path></g></g></g></svg> 