<?xml version="1.0" encoding="UTF-8"?> <svg xmlns="http://www.w3.org/2000/svg" width="88" height="88" viewBox="0 0 88 88"><g fill="none" fill-rule="evenodd"><g fill="#FFF" fill-rule="nonzero"><g><g><g><path d="M18 66.692c0-.722-.585-1.308-1.308-1.308-7.762 0-14.077-6.312-14.077-14.07 0-5.505 3.24-10.535 8.254-12.815.657-.299.948-1.074.649-1.732-.3-.658-1.075-.948-1.732-.65C3.841 38.823 0 44.788 0 51.314 0 60.514 7.488 68 16.692 68c.723 0 1.308-.586 1.308-1.308zM26.96 39.933C28.828 29.5 37.889 21.928 48.505 21.928c8.118 0 15.53 4.458 19.342 11.635.336.631 1.12.871 1.75.536.632-.336.872-1.12.536-1.753-.725-1.364-1.566-2.641-2.508-3.82v-17.27l3.132-3.735c.423.159.882.246 1.36.246C74.258 7.767 76 6.025 76 3.883 76 1.742 74.258 0 72.116 0c-2.141 0-3.884 1.742-3.884 3.883 0 .72.197 1.394.54 1.973L65.337 9.95c-.195.233-.302.528-.302.833v14.97c-2.274-2.083-4.918-3.715-7.794-4.812V11.9c1.507-.535 2.589-1.974 2.589-3.662 0-2.141-1.742-3.883-3.884-3.883s-3.884 1.742-3.884 3.883c0 1.688 1.082 3.127 2.59 3.662v8.217c-1.98-.512-4.043-.78-6.148-.78-1.072 0-2.13.07-3.168.203V7.545c1.507-.535 2.589-1.974 2.589-3.662C47.925 1.742 46.183 0 44.04 0s-3.884 1.742-3.884 3.883c0 1.688 1.082 3.127 2.59 3.662v12.473c-3.434.825-6.601 2.376-9.316 4.494V11.9c1.507-.535 2.589-1.974 2.589-3.662 0-2.141-1.742-3.883-3.884-3.883s-3.884 1.742-3.884 3.883c0 1.688 1.082 3.127 2.59 3.662v14.947c-2.822 2.935-4.926 6.59-6.008 10.71-.604-.362-1.228-.683-1.869-.962V10.784c0-.305-.107-.6-.303-.833l-3.434-4.095c.343-.579.54-1.253.54-1.973C19.768 1.742 18.026 0 15.884 0S12 1.742 12 3.883c0 2.142 1.742 3.884 3.884 3.884.478 0 .937-.087 1.36-.246l3.132 3.734v24.463c-1.292-.32-2.631-.483-3.998-.483-.715 0-1.294.58-1.294 1.295 0 .716.58 1.296 1.294 1.296 3.114 0 6.06 1.004 8.517 2.904.23.178.51.27.791.27.157 0 .315-.029.466-.087.422-.163.729-.535.809-.98zM72.117 2.59c.714 0 1.295.58 1.295 1.292 0 .713-.58 1.292-1.295 1.292-.714 0-1.295-.58-1.295-1.292 0-.712.581-1.292 1.295-1.292zm-16.17 4.355c.714 0 1.295.58 1.295 1.292 0 .712-.581 1.292-1.295 1.292s-1.295-.58-1.295-1.292c0-.712.581-1.292 1.295-1.292zM44.041 2.591c.714 0 1.295.58 1.295 1.292 0 .713-.581 1.292-1.295 1.292s-1.295-.58-1.295-1.292c0-.712.581-1.292 1.295-1.292zM32.136 6.946c.714 0 1.295.58 1.295 1.292 0 .712-.581 1.292-1.295 1.292s-1.295-.58-1.295-1.292c0-.712.581-1.292 1.295-1.292zM14.589 3.883c0-.712.58-1.292 1.295-1.292.714 0 1.295.58 1.295 1.292 0 .713-.581 1.292-1.295 1.292s-1.295-.58-1.295-1.292zM75.821 43.043c-.923 0-1.832.105-2.719.312-.01-1.805-.214-3.604-.605-5.348-.156-.698-.834-1.134-1.515-.974-.68.16-1.106.856-.95 1.554.36 1.603.541 3.258.541 4.919 0 .506-.017 1.023-.052 1.535-.03.444.165.874.516 1.136.352.263.81.322 1.214.158 1.135-.464 2.336-.699 3.57-.699 5.321 0 9.65 4.435 9.65 9.886 0 5.45-4.33 9.885-9.65 9.885h-4.147c-.699 0-1.265.58-1.265 1.297 0 .716.566 1.296 1.265 1.296h4.147C82.537 68 88 62.402 88 55.522c0-6.881-5.463-12.479-12.179-12.479zM61.669 65H49.33c-.735 0-1.331.587-1.331 1.31 0 .724.596 1.31 1.331 1.31h5.583v12.75c-1.55.54-2.662 1.996-2.662 3.703 0 2.165 1.791 3.927 3.993 3.927 2.203 0 3.994-1.762 3.994-3.927 0-1.707-1.113-3.163-2.662-3.703V67.62h4.092c.735 0 1.331-.586 1.331-1.31 0-.723-.596-1.31-1.331-1.31zm-5.424 20.38c-.734 0-1.33-.587-1.33-1.307s.596-1.307 1.33-1.307c.735 0 1.332.586 1.332 1.307 0 .72-.597 1.307-1.332 1.307zM38.74 65H27.26c-.696 0-1.26.587-1.26 1.31 0 .724.564 1.31 1.26 1.31h3.675v12.75c-1.467.54-2.52 1.996-2.52 3.703 0 2.165 1.696 3.927 3.781 3.927s3.782-1.762 3.782-3.927c0-1.707-1.054-3.163-2.521-3.703V67.62h5.282c.697 0 1.261-.586 1.261-1.31 0-.723-.564-1.31-1.26-1.31zm-6.544 20.38c-.695 0-1.26-.587-1.26-1.307s.565-1.307 1.26-1.307c.695 0 1.26.586 1.26 1.307 0 .72-.565 1.307-1.26 1.307z" transform="translate(-645 -563) translate(0 90) translate(136 466) translate(509 7)"></path><path d="M22.104 54c-2.148 0-3.896 1.746-3.896 3.892 0 1.692 1.086 3.135 2.597 3.67v17.75l-5.501 6.555c-.461.549-.39 1.368.16 1.83.243.203.54.303.834.303.37 0 .739-.158.996-.464l5.805-6.917c.196-.234.304-.53.304-.834V61.562c1.511-.535 2.597-1.978 2.597-3.67C26 55.746 24.252 54 22.104 54zm0 5.188c-.716 0-1.299-.581-1.299-1.296 0-.714.583-1.295 1.299-1.295s1.299.581 1.299 1.295-.583 1.296-1.3 1.296zM44 54c-2.206 0-4 1.746-4 3.892 0 1.692 1.115 3.135 2.667 3.67v25.14c0 .717.597 1.298 1.333 1.298s1.333-.581 1.333-1.299V61.562c1.552-.535 2.667-1.978 2.667-3.67C48 55.746 46.206 54 44 54zm0 5.188c-.735 0-1.333-.581-1.333-1.296 0-.714.598-1.295 1.333-1.295s1.333.581 1.333 1.295-.598 1.296-1.333 1.296zM67.195 79.312v-17.75c1.512-.535 2.597-1.978 2.597-3.67 0-2.146-1.747-3.892-3.896-3.892C63.748 54 62 55.746 62 57.892c0 1.692 1.086 3.135 2.597 3.67v18.223c0 .305.108.6.304.834l5.806 6.917c.256.306.624.464.995.464.295 0 .59-.1.834-.304.55-.461.621-1.28.16-1.83l-5.501-6.554zm-1.299-22.715c.716 0 1.299.581 1.299 1.295s-.583 1.296-1.299 1.296-1.299-.581-1.299-1.296c0-.714.583-1.295 1.3-1.295z" transform="translate(-645 -563) translate(0 90) translate(136 466) translate(509 7)"></path></g></g></g></g></g></svg> 